<svg viewBox="0 0 600 337" xmlns="http://www.w3.org/2000/svg"><clipPath id="movies-a"><path d="M223.7 239.1h9.5v-17.8h-17.6v9.7c0 5.1 2.9 8.1 8.1 8.1zm161.8-8.1v-9.7h-17.6v17.8h9.6c5.1 0 8-3 8-8.1zm-169.9-22.8h17.6v-17.8h-17.6zm152.3 0h17.6v-17.8h-17.6zm-117.4-31.1v62h100.1v-62zm-34.9.3h17.6v-17.8h-17.6zm152.3 0h17.6v-17.8h-17.6zm-152.3-30.8h17.6v-17.8h-17.6zm152.3 0h17.6v-17.8h-17.6zm9.6-48.6h-9.6v17.8h17.6V106c0-5.1-2.9-8-8-8zm-127 61.7h100.1V98H250.5zm-34.9-53.8v9.8h17.6V98h-9.5c-5.2 0-8.1 2.9-8.1 7.9zm.7 149.6c-12.3 0-18.3-7.1-18.3-19.2V100.7c0-12.2 6-19.1 18.3-19.1h168.5c12.3 0 18.3 6.9 18.3 19.1v135.6c0 12.1-6 19.2-18.3 19.2z"/></clipPath><clipPath id="movies-b"><path d="M0 0h600v337H0z"/></clipPath><g clip-path="url(#movies-a)"><path clip-path="url(#movies-b)" d="M193 76.6h215.1v183.9H193z"/></g></svg>